<?xml version="1.0" standalone="no"?>
<!DOCTYPE svg PUBLIC "-//W3C//DTD SVG 20010904//EN"
 "http://www.w3.org/TR/2001/REC-SVG-20010904/DTD/svg10.dtd">
<svg version="1.0" xmlns="http://www.w3.org/2000/svg"
 width="5000.000000pt" height="5000.000000pt" viewBox="0 0 5000.000000 5000.000000"
 preserveAspectRatio="xMidYMid meet">
<metadata>
Created by potrace 1.15, written by Peter Selinger 2001-2017
</metadata>
<g transform="translate(0.000000,5000.000000) scale(0.100000,-0.100000)"
fill="#000000" stroke="none">
<path d="M25420 48569 c-1357 -27 -2602 -87 -5540 -269 -1296 -80 -1639 -100
-2276 -135 -254 -14 -533 -32 -620 -40 -1842 -175 -3694 -925 -5519 -2234
-1327 -952 -2650 -2223 -3774 -3626 -382 -477 -723 -942 -793 -1082 -25 -51
-47 -83 -57 -83 -93 -1 -433 -23 -540 -36 -1022 -118 -1906 -589 -2542 -1356
-453 -546 -715 -1151 -806 -1863 -22 -176 -25 -695 -5 -880 80 -718 335 -1486
737 -2210 203 -367 430 -701 642 -947 125 -145 161 -219 507 -1050 222 -535
319 -762 385 -903 l50 -106 15 -227 c84 -1243 127 -2842 107 -3972 -19 -1032
-52 -1612 -137 -2410 -327 -3074 -788 -8623 -875 -10527 -6 -138 -9 -336 -7
-440 4 -172 7 -195 33 -273 129 -394 578 -946 1561 -1920 1566 -1549 4577
-4202 8714 -7676 900 -756 2644 -2204 2754 -2288 58 -44 148 -91 226 -118 153
-53 1896 -343 3045 -507 3521 -503 6698 -714 9045 -601 1842 89 3232 362 4180
821 295 144 496 268 711 441 1095 878 2067 2486 2864 4738 617 1745 1147 3974
1445 6085 63 442 58 514 -51 786 -135 341 -339 935 -478 1396 -349 1156 -587
2317 -691 3363 -70 704 -79 1456 -24 2055 62 686 206 1327 420 1866 114 289
146 348 350 645 375 547 881 1323 1210 1856 60 98 113 178 118 178 12 0 206
-128 391 -258 1017 -714 1775 -1475 2319 -2329 54 -84 117 -175 142 -202 94
-104 242 -193 394 -237 90 -25 308 -26 400 0 463 127 714 594 564 1048 -28 86
-86 187 -243 422 -288 434 -629 850 -1036 1265 -557 567 -1160 1059 -1907
1556 -115 76 -208 142 -208 146 0 5 46 93 101 196 224 416 489 950 644 1296
29 66 53 107 62 107 47 0 730 -206 1123 -339 625 -211 1083 -399 1590 -653
450 -225 809 -444 1135 -692 77 -59 172 -122 210 -141 477 -231 1040 44 1146
559 49 237 -6 471 -156 666 -54 70 -118 125 -305 265 -767 572 -1831 1095
-3110 1530 -277 94 -707 228 -945 295 -82 23 -153 44 -156 46 -3 2 4 54 17
116 66 317 75 467 63 986 -6 233 -9 426 -6 428 3 3 94 -7 203 -21 987 -129
1755 -341 2364 -653 102 -53 219 -113 260 -134 114 -58 212 -80 355 -80 233 0
428 82 586 249 146 153 219 337 219 553 0 230 -82 423 -246 581 -81 78 -130
110 -319 211 -848 451 -1997 764 -3303 900 l-221 23 -6 50 c-107 827 -268
1434 -532 1995 -160 338 -411 713 -664 991 l-78 85 94 285 c129 392 369 1148
411 1299 321 1135 257 2401 -176 3485 -436 1090 -1166 1884 -1890 2057 -103
24 -152 48 -260 129 -224 165 -427 350 -1200 1089 -1131 1083 -1773 1654
-2595 2311 -730 583 -968 746 -1415 969 -1654 828 -4268 1178 -8200 1099z
m2130 -1619 c2420 -64 4059 -331 5191 -845 335 -152 538 -283 1014 -654 892
-695 1614 -1332 2770 -2442 508 -487 722 -688 910 -854 498 -439 847 -654
1193 -736 118 -28 172 -59 273 -159 296 -293 574 -835 719 -1403 164 -646 161
-1340 -11 -1954 -32 -113 -200 -655 -206 -662 -6 -9 -14 8 -44 95 -75 218
-103 468 -75 653 50 324 -25 567 -237 768 -84 80 -166 132 -263 169 -410 154
-858 -36 -1031 -436 -58 -137 -93 -376 -93 -645 0 -723 246 -1433 707 -2047
121 -160 253 -306 459 -508 109 -107 220 -221 246 -252 59 -69 160 -147 254
-192 55 -27 89 -54 150 -119 401 -425 648 -982 787 -1780 18 -98 21 -140 13
-142 -6 -2 -238 -6 -516 -9 -604 -6 -1031 -26 -1680 -77 -962 -76 -2340 -255
-2580 -335 -397 -133 -627 -556 -524 -964 9 -36 35 -105 59 -155 116 -241 344
-406 617 -446 98 -14 167 -9 407 31 214 36 713 107 810 116 l67 6 81 -158 c82
-160 158 -332 150 -340 -2 -3 -64 2 -138 11 -259 29 -564 55 -654 55 -348 0
-660 -236 -767 -580 -20 -64 -23 -96 -23 -225 0 -129 3 -160 23 -225 68 -217
210 -390 402 -489 111 -57 194 -79 369 -96 360 -36 897 -97 903 -103 9 -9 -42
-159 -98 -287 -42 -95 -146 -285 -182 -333 l-17 -22 -345 114 c-190 63 -448
145 -575 181 -197 57 -245 67 -335 72 -236 13 -445 -68 -615 -236 -165 -164
-244 -371 -232 -605 7 -134 24 -202 82 -321 100 -208 289 -362 523 -426 45
-12 82 -26 82 -31 0 -17 -305 -157 -440 -202 -205 -68 -318 -89 -490 -90
l-145 -1 -284 93 c-1228 404 -2466 875 -3070 1168 l-194 94 7 38 c3 21 10 131
16 245 16 317 -10 718 -65 1002 -8 44 -15 83 -15 86 0 4 35 19 77 34 642 228
1185 648 1490 1155 140 233 220 429 317 778 48 173 115 243 341 358 71 37 162
91 202 121 158 119 269 308 302 513 50 307 -98 636 -364 806 -368 235 -1537
600 -2845 888 -617 136 -926 188 -1105 188 -424 -2 -1320 -277 -2730 -839
-451 -180 -1148 -469 -1250 -518 -207 -101 -366 -294 -426 -520 -28 -103 -30
-288 -6 -387 64 -260 237 -461 487 -567 176 -75 379 -218 540 -380 124 -125
216 -245 302 -394 241 -418 479 -686 794 -896 527 -354 1144 -516 2115 -557
l157 -7 16 -81 c35 -180 48 -301 53 -526 8 -328 -16 -514 -81 -624 -63 -107
-248 -259 -503 -412 -566 -340 -1409 -651 -2303 -849 -113 -25 -266 -65 -340
-90 -838 -272 -1871 -507 -2640 -599 -563 -68 -1107 -79 -1489 -31 -139 18
-384 64 -501 96 -128 34 -340 102 -340 109 0 4 132 70 293 148 455 219 749
349 1085 483 206 81 268 113 350 180 398 322 390 954 -17 1263 -153 116 -302
166 -496 166 -135 0 -190 -13 -397 -91 -621 -235 -1662 -731 -2353 -1123
l-100 -56 -145 147 c-341 348 -599 751 -645 1008 -7 39 -9 73 -6 77 8 9 548
122 891 187 728 137 1499 254 2090 315 181 19 242 35 355 90 208 103 353 276
421 501 23 76 27 109 27 215 1 153 -16 225 -83 366 -39 80 -65 118 -126 184
-168 178 -353 260 -588 260 -293 0 -1381 -152 -2264 -316 -134 -25 -246 -44
-248 -42 -5 6 134 296 221 458 121 227 217 391 233 398 30 11 804 -55 1272
-109 237 -28 275 -30 357 -20 192 23 342 98 484 241 86 86 103 108 147 201 67
138 85 216 85 359 0 142 -25 246 -88 370 -127 245 -341 392 -630 434 -405 58
-1268 132 -2000 171 -675 35 -873 40 -1820 40 -950 0 -1151 -5 -1775 -40
-2479 -143 -4602 -583 -6305 -1307 -418 -178 -509 -232 -626 -371 -120 -143
-181 -315 -182 -512 -1 -148 16 -222 83 -361 39 -80 65 -118 126 -184 169
-179 356 -262 594 -262 150 0 225 20 444 118 1666 742 3769 1166 6361 1284
529 24 1631 37 1649 19 3 -3 -35 -93 -85 -200 -163 -346 -291 -668 -389 -979
-29 -91 -58 -170 -64 -177 -6 -6 -108 -37 -226 -68 -2030 -537 -3999 -1316
-5505 -2178 -560 -320 -1146 -700 -1555 -1007 -41 -31 -80 -60 -87 -63 -47
-28 -774 1389 -947 1844 -57 152 -125 299 -166 359 -160 237 -433 373 -715
356 -117 -7 -192 -25 -293 -72 -144 -66 -259 -166 -347 -303 l-46 -71 -197 2
-197 3 -6 460 c-14 969 -83 2511 -139 3096 -15 154 -31 206 -119 384 -98 197
-141 294 -393 899 -440 1056 -564 1306 -738 1486 -181 187 -491 685 -686 1102
-384 823 -480 1556 -283 2159 188 576 709 1087 1323 1298 649 223 1483 168
2272 -150 163 -66 235 -81 369 -81 294 1 560 157 704 413 33 59 81 190 81 221
0 17 24 18 558 18 607 0 1404 -13 2017 -31 215 -7 496 -13 625 -13 221 -1 238
0 282 21 66 30 139 102 174 170 26 52 29 68 29 153 0 82 -4 103 -27 152 -34
74 -94 138 -160 171 -88 44 -78 44 -1348 78 -201 5 -815 12 -1365 15 l-1000 6
-35 33 c-46 43 -111 85 -188 124 -62 31 -299 129 -324 133 -7 2 1004 5 2247 8
l2260 5 60 24 c83 33 174 125 203 204 29 77 30 186 1 262 -27 73 -104 156
-177 192 l-57 28 -1997 3 c-1099 1 -1998 6 -1998 10 0 4 65 84 145 177 l145
170 2093 5 2092 5 60 24 c84 34 174 124 204 206 32 85 27 207 -12 287 -32 66
-109 141 -175 171 l-47 22 -1767 3 c-973 1 -1768 6 -1768 10 0 4 78 85 173
179 l172 173 1925 2 1925 3 60 24 c84 33 174 124 205 206 29 80 30 179 0 257
-28 76 -104 159 -178 195 l-57 28 -1548 5 -1548 5 118 100 c65 56 158 134 208
175 l90 75 1780 5 1780 5 57 23 c80 32 150 99 190 180 30 60 33 75 33 157 0
76 -4 98 -26 146 -36 76 -86 129 -161 170 l-63 34 -1305 5 -1305 5 135 91 c74
50 197 130 272 177 l137 87 1514 0 c1049 0 1531 3 1572 11 178 33 297 176 297
354 -1 137 -79 262 -200 322 l-57 28 -870 5 c-660 4 -864 8 -845 16 168 76
491 201 739 285 l174 59 1032 0 c701 0 1050 3 1090 11 157 29 269 143 294 299
6 35 12 64 13 65 2 1 62 5 133 9 l130 6 11 -69 c27 -168 137 -282 302 -312 33
-6 160 -9 311 -7 238 4 260 6 313 27 76 30 159 106 195 179 25 50 28 68 28
154 l0 96 80 6 c164 13 2042 127 2645 161 1268 70 2279 112 3230 134 505 12
1776 12 2200 1z m1912 -14389 c313 -53 914 -189 1440 -327 215 -56 431 -115
435 -118 1 -1 -18 -52 -42 -114 -25 -61 -63 -177 -85 -257 -50 -179 -70 -235
-116 -311 -210 -348 -626 -567 -1267 -664 -133 -20 -155 -20 -515 -10 -382 10
-592 26 -769 56 -371 62 -636 191 -785 381 -25 32 -79 115 -119 184 -82 142
-214 339 -294 439 -30 38 -55 73 -55 77 0 9 352 145 785 305 534 197 1058 365
1207 387 4 1 85 -12 180 -28z m10953 -1613 c12 -452 11 -796 -4 -896 -8 -51
-17 -95 -21 -97 -3 -2 -139 23 -301 56 -293 60 -923 177 -1074 200 -44 6 -85
17 -91 23 -6 6 -17 43 -24 81 -34 185 -120 483 -198 694 l-48 129 70 6 c284
24 829 43 1297 44 l387 2 7 -242z m-1286 -2403 c240 -44 661 -124 679 -130 9
-3 -43 -116 -162 -352 -160 -318 -418 -807 -435 -826 -4 -4 -108 42 -232 102
-123 60 -278 134 -344 164 -66 30 -120 59 -120 64 0 4 33 72 73 151 115 227
223 508 277 722 34 135 36 140 51 140 9 0 105 -16 213 -35z m-21950 -736 c40
-165 84 -285 172 -468 162 -339 379 -663 654 -979 59 -68 103 -127 99 -131 -5
-4 -81 -57 -169 -116 -805 -546 -1587 -1164 -2310 -1824 -228 -208 -884 -864
-1081 -1081 -169 -186 -397 -446 -493 -562 -35 -43 -65 -78 -67 -78 -8 0 -452
272 -632 386 -611 391 -1434 983 -1742 1253 -233 204 -476 451 -688 700 l-80
94 81 62 c1459 1096 3505 2067 5797 2750 173 52 338 101 365 109 28 8 53 15
56 15 3 1 21 -58 38 -130z m-9742 -134 c14 -33 60 -144 104 -246 43 -102 79
-189 79 -193 0 -7 -604 -9 -611 -2 -2 2 -3 117 -1 255 l3 251 201 -2 202 -3
23 -60z m22962 -1214 c182 -92 437 -210 646 -300 l120 -51 37 -78 c50 -107
115 -187 266 -329 72 -68 145 -141 163 -164 l33 -41 -30 15 c-48 24 -135 46
-225 56 -358 40 -705 -170 -837 -509 -59 -150 -65 -276 -27 -553 49 -364 59
-540 60 -1012 0 -454 -6 -568 -46 -835 -46 -304 -104 -498 -217 -721 -43 -85
-87 -185 -97 -224 -10 -38 -19 -71 -20 -72 -5 -9 -777 -67 -1185 -88 -350 -18
-1102 -40 -1121 -33 -19 8 -119 200 -164 316 -112 290 -204 739 -250 1212 -30
319 -38 518 -39 995 -2 533 -2 536 -62 671 -61 139 -184 279 -313 359 -34 21
-60 39 -59 41 2 1 91 25 198 54 1274 340 2308 804 2887 1295 54 46 100 84 102
84 2 1 83 -39 180 -88z m-22340 -127 c51 -96 125 -236 166 -310 41 -74 75
-137 75 -139 0 -3 -304 -5 -675 -5 l-675 0 0 53 c0 28 7 160 15 292 8 132 15
250 15 263 l0 22 494 0 494 0 91 -176z m29535 -138 c172 -74 575 -260 718
-332 l77 -38 -21 -35 c-322 -531 -916 -1445 -1309 -2011 -127 -183 -179 -268
-235 -385 -361 -748 -599 -1629 -704 -2600 -69 -647 -78 -1432 -25 -2175 119
-1643 559 -3588 1190 -5268 l73 -192 -44 -290 c-81 -535 -172 -1051 -290
-1640 -545 -2726 -1313 -4985 -2192 -6450 -295 -492 -582 -871 -901 -1191
-196 -196 -313 -295 -475 -401 -729 -477 -2121 -748 -4132 -804 l-240 -7 -14
33 c-21 50 -103 128 -167 158 l-58 27 -315 0 c-304 0 -317 -1 -363 -22 -59
-28 -143 -105 -169 -156 l-19 -39 -242 6 c-133 4 -275 9 -315 12 -66 5 -74 8
-86 33 -22 41 -110 119 -163 144 l-48 22 -1470 5 -1470 6 -345 37 c-728 78
-825 89 -1155 128 -263 30 -1042 127 -1143 141 -9 2 919 5 2063 8 l2080 5 56
26 c76 36 133 90 166 157 37 76 40 201 6 274 -32 69 -94 131 -166 164 l-62 29
-3808 5 -3808 5 -291 240 -291 240 3479 5 3479 5 46 21 c67 31 124 87 156 152
24 50 28 69 28 147 0 78 -4 97 -27 140 -32 62 -103 129 -166 158 l-47 22
-3869 3 -3868 2 -291 243 -291 242 3534 5 3535 5 50 24 c107 53 177 156 183
272 8 135 -51 244 -168 308 l-65 36 -3927 5 -3927 5 -266 225 c-147 124 -277
233 -289 242 -20 17 168 18 3559 20 l3580 3 57 27 c66 31 128 91 160 156 34
69 37 178 7 257 -30 80 -104 154 -182 183 l-58 22 -3954 0 -3954 0 -69 58
c-37 31 -166 140 -285 242 l-217 185 3612 5 c2758 4 3621 8 3646 17 88 32 176
118 206 202 14 40 17 70 14 129 -8 130 -72 222 -193 279 l-60 28 -4003 5
-4003 5 -272 235 -273 235 3646 5 3645 5 60 28 c78 36 137 95 170 169 24 53
27 70 23 141 -5 133 -66 225 -186 284 l-57 28 -4034 3 -4033 2 -276 243 -276
242 3684 5 3685 5 46 21 c67 31 124 87 159 156 25 52 30 73 30 134 0 138 -60
238 -178 296 l-67 33 -4053 5 -4054 5 -269 240 -270 240 3698 5 3698 5 58 29
c195 99 240 351 92 514 -20 23 -62 54 -93 69 l-57 28 -4060 3 -4061 2 -264
243 -265 242 3690 5 3690 5 55 26 c73 34 120 76 152 136 50 91 55 200 14 297
-21 50 -92 124 -151 154 l-50 27 -4052 5 -4053 5 -249 240 -249 240 3656 5
c3369 5 3660 6 3700 22 132 50 214 164 215 298 1 36 -4 83 -11 106 -27 92
-104 171 -204 212 -40 16 -295 17 -4024 20 l-3981 2 -100 113 c-190 215 -293
351 -293 386 l0 21 4863 0 c4386 0 4869 2 4918 16 78 22 152 77 197 144 51 76
66 132 60 228 -8 134 -82 242 -207 301 l-56 26 -4872 3 -4871 2 4 38 c6 53 34
514 34 556 l0 36 4483 2 4482 3 56 26 c76 36 129 86 170 161 33 60 34 68 34
168 0 101 -1 108 -34 168 -40 74 -93 124 -171 161 l-55 26 -4453 3 -4452 2 0
38 c0 20 9 154 20 297 11 143 20 268 20 277 0 17 206 18 4068 20 l4067 3 56
28 c248 121 273 465 46 621 -105 72 265 66 -4174 66 -3806 0 -4003 1 -4003 18
0 33 41 557 46 579 l4 22 3618 3 3617 3 57 23 c71 29 161 109 193 171 52 103
52 229 0 331 -32 64 -122 144 -190 169 -46 17 -80 21 -198 22 l-142 1 85 18
c160 33 294 103 408 213 66 64 120 139 203 284 l64 112 320 3 320 3 67 32
c182 86 260 285 183 469 -8 20 -14 38 -12 40 2 2 50 -15 108 -37 417 -164 796
-276 1104 -328 66 -11 280 -37 475 -56 2490 -249 4522 -623 5290 -972 61 -28
73 -40 209 -204 165 -198 503 -542 664 -675 826 -682 1716 -981 2717 -914 276
19 1070 60 2200 115 2465 120 3939 202 4308 240 939 98 1642 348 2172 771 115
93 308 287 407 411 229 286 430 656 586 1079 104 282 166 485 327 1069 123
446 244 792 363 1035 54 111 70 133 135 195 122 116 211 266 249 423 22 89 22
275 0 364 -85 348 -369 589 -732 623 -149 14 -339 -33 -488 -122 -125 -74
-300 -252 -409 -418 -147 -222 -241 -408 -370 -730 -120 -299 -216 -606 -408
-1303 -110 -401 -203 -668 -302 -867 -292 -584 -728 -824 -1673 -920 -352 -35
-1761 -114 -3935 -220 -1224 -60 -1872 -93 -2170 -111 -549 -33 -689 -31 -939
17 -457 88 -934 382 -1323 817 -233 259 -395 478 -1053 1422 -186 266 -381
543 -433 615 -496 679 -830 1007 -1212 1189 -431 204 -791 198 -1076 -19 -119
-92 -211 -217 -262 -359 -166 -456 94 -942 567 -1062 52 -14 106 -32 119 -40
62 -40 333 -345 313 -352 -4 -1 -116 17 -247 42 -958 179 -2047 328 -3389 465
-414 43 -482 53 -658 100 -189 51 -617 203 -617 220 0 4 68 82 150 174 612
681 1350 1366 2137 1985 205 161 617 467 848 629 329 230 810 547 830 546 6 0
56 -28 113 -62 151 -90 423 -229 617 -314 638 -281 1283 -441 1959 -487 88 -6
162 -13 166 -15 27 -17 644 -890 925 -1310 416 -620 640 -986 872 -1424 184
-348 292 -519 455 -725 317 -398 695 -640 1203 -771 372 -96 767 -131 1600
-141 1138 -15 2507 57 3630 191 110 13 270 29 355 35 887 63 1665 429 2091
985 172 223 306 512 368 785 70 314 216 1331 253 1760 16 195 16 636 -1 775
-27 231 -94 503 -160 659 l-19 43 89 -28 c216 -68 409 -94 689 -93 230 0 366
14 588 60 555 114 1175 414 1741 842 132 100 388 310 411 336 7 9 17 16 22 16
6 0 87 -33 182 -74z m-29158 -1158 c-64 -68 -192 -207 -284 -310 l-167 -188
-582 0 c-460 0 -583 3 -583 13 0 6 14 146 31 310 l32 297 835 0 834 0 -116
-122z m17023 -440 c-246 -242 -468 -531 -678 -881 l-53 -88 -177 263 c-98 145
-219 322 -269 393 -75 108 -88 131 -74 137 9 3 123 25 252 48 273 48 612 119
895 189 110 27 204 49 209 50 5 0 -42 -50 -105 -111z m-18003 -800 c-54 -192
-46 -401 23 -560 l20 -48 -409 0 -409 0 5 33 c2 17 16 154 29 302 14 149 28
276 30 283 3 9 85 12 361 12 l356 0 -6 -22z m2365 -85 c52 -59 186 -201 298
-315 l204 -208 -672 0 c-369 0 -671 3 -671 6 0 16 273 341 443 527 l89 97 107
0 107 0 95 -107z m22472 -893 c24 0 23 -6 -27 -308 -39 -234 -48 -272 -79
-335 -32 -65 -97 -146 -97 -121 0 6 9 50 19 99 27 124 68 395 83 548 l12 129
36 -6 c19 -3 43 -6 53 -6z m-20955 -443 c312 -229 718 -508 1057 -727 121 -78
224 -145 228 -149 4 -4 12 -36 18 -70 22 -139 109 -245 234 -288 25 -8 45 -16
45 -18 0 -1 -57 -94 -127 -207 -71 -112 -157 -254 -193 -316 l-65 -112 -3049
0 -3049 0 6 53 c3 28 16 170 28 314 l22 263 2786 2 2786 3 67 33 c128 63 201
180 201 322 0 143 -72 259 -201 322 l-67 33 -2752 3 c-2186 2 -2753 5 -2753
15 0 27 52 593 55 605 4 9 472 12 2300 12 l2296 0 127 -93z m14632 -47 c34
-198 77 -403 119 -562 32 -123 36 -148 23 -148 -9 0 -52 18 -96 39 -99 48
-193 132 -263 233 -66 97 -117 188 -105 188 6 0 44 32 86 71 79 74 159 183
192 262 10 25 20 45 21 44 1 -1 11 -59 23 -127z m-13571 -2647 c94 -272 317
-461 621 -527 56 -12 -379 -14 -3312 -15 l-3378 -1 0 32 c0 42 39 522 46 566
l5 32 2995 -2 2995 -3 28 -82z"/>
<path d="M17178 45812 c-156 -57 -246 -195 -236 -362 6 -101 39 -171 113 -239
95 -86 129 -94 418 -99 327 -5 394 7 498 89 83 65 137 199 124 309 -14 121
-102 242 -213 293 -45 21 -62 22 -352 24 -269 2 -311 1 -352 -15z"/>
<path d="M16131 44734 c-94 -34 -168 -100 -211 -189 -36 -74 -40 -199 -9 -280
31 -82 121 -173 204 -205 56 -22 77 -24 308 -28 338 -6 421 12 517 108 144
144 140 374 -9 513 -97 91 -102 92 -451 94 -256 2 -312 0 -349 -13z"/>
<path d="M15321 43654 c-94 -33 -161 -93 -208 -184 -25 -50 -28 -65 -28 -155
0 -89 3 -106 28 -157 36 -73 119 -149 195 -179 52 -21 77 -23 298 -27 150 -2
268 0 313 7 135 21 228 89 284 209 28 58 32 78 31 147 0 69 -5 90 -31 145 -36
78 -98 141 -173 178 l-55 27 -305 2 c-256 2 -312 0 -349 -13z"/>
<path d="M14538 42567 c-213 -89 -291 -345 -162 -534 60 -88 140 -136 255
-154 46 -7 162 -10 314 -7 218 4 245 7 297 27 76 29 159 106 195 179 25 51 28
68 28 157 0 85 -4 107 -24 148 -35 70 -101 139 -168 172 l-58 30 -310 3 c-306
2 -311 2 -367 -21z"/>
<path d="M13943 41496 c-94 -30 -187 -118 -222 -212 -29 -75 -28 -184 1 -261
30 -80 121 -171 203 -203 55 -21 80 -23 295 -28 260 -5 353 4 432 41 141 64
229 235 198 383 -18 85 -51 144 -114 202 -97 88 -118 92 -459 91 -211 0 -304
-4 -334 -13z"/>
<path d="M13590 40415 c-25 -8 -66 -31 -93 -50 -142 -105 -187 -290 -108 -449
35 -72 95 -132 169 -168 46 -23 53 -23 372 -23 323 0 325 0 370 24 103 54 164
126 194 230 29 99 13 200 -46 293 -33 53 -79 93 -148 129 -44 24 -50 24 -355
26 -249 2 -319 -1 -355 -12z"/>
<path d="M35015 39926 c-109 -18 -227 -50 -339 -90 -735 -266 -1202 -892
-1337 -1791 -27 -177 -32 -391 -21 -765 11 -341 20 -410 83 -621 227 -767 975
-1681 2144 -2620 451 -363 1152 -861 1328 -945 115 -54 214 -76 347 -75 222 0
399 71 558 225 108 103 173 212 218 363 22 75 26 107 26 213 0 194 -49 344
-160 491 -69 90 -121 134 -312 262 -402 268 -702 493 -1182 884 -26 21 -47 41
-48 44 0 3 35 36 78 72 124 104 311 304 414 441 273 363 438 755 488 1156 13
109 13 371 0 480 -68 547 -356 1148 -773 1610 -309 344 -675 573 -1042 652
-118 25 -360 32 -470 14z m291 -1729 c195 -207 339 -470 382 -696 27 -147 -6
-275 -116 -441 -84 -127 -301 -340 -347 -340 -18 0 -93 133 -139 247 -50 125
-92 264 -131 439 -25 110 -27 131 -22 284 5 188 32 315 87 418 58 110 154 201
190 182 9 -5 53 -47 96 -93z"/>
<path d="M19575 39919 c-482 -31 -1019 -271 -1546 -690 -337 -269 -760 -702
-1055 -1080 -229 -294 -301 -407 -346 -549 -20 -65 -23 -95 -23 -225 1 -144 2
-154 34 -249 39 -113 80 -180 299 -496 499 -721 902 -1223 1294 -1613 88 -87
158 -160 156 -161 -18 -15 -528 -363 -793 -542 -339 -228 -418 -291 -484 -388
-48 -70 -106 -200 -127 -286 -23 -95 -23 -268 -1 -362 112 -464 599 -736 1046
-583 103 35 144 59 487 290 926 624 1727 1191 2424 1715 151 114 327 238 390
275 565 334 992 757 1140 1130 161 406 125 923 -107 1515 -315 804 -945 1584
-1594 1976 -297 178 -645 302 -901 319 -46 3 -103 7 -128 9 -25 2 -99 0 -165
-5z m196 -1628 c344 -118 746 -550 1009 -1086 84 -170 140 -315 155 -397 7
-36 7 -36 -107 -133 -62 -54 -194 -163 -293 -242 -150 -121 -200 -155 -305
-208 -231 -116 -445 -197 -600 -229 l-74 -15 -53 45 c-179 153 -585 636 -955
1135 l-140 189 57 66 c371 422 822 772 1120 870 86 28 117 29 186 5z"/>
<path d="M14499 19125 c-107 -34 -204 -134 -236 -244 -49 -170 48 -365 215
-433 55 -22 67 -23 352 -23 285 0 297 1 352 23 80 32 150 99 190 180 30 61 33
75 33 157 -1 77 -5 98 -29 147 -35 73 -100 139 -174 175 l-57 28 -300 2 c-239
2 -309 -1 -346 -12z"/>
<path d="M15240 17784 c-109 -30 -190 -98 -239 -203 -22 -47 -26 -70 -26 -146
0 -79 4 -97 29 -149 37 -76 101 -140 174 -174 l57 -27 315 0 315 0 57 27 c73
34 137 98 173 174 25 51 29 71 30 149 0 82 -3 96 -33 157 -40 81 -110 148
-190 180 -54 21 -72 23 -332 25 -220 2 -286 -1 -330 -13z"/>
<path d="M15897 16439 c-101 -24 -199 -105 -243 -202 -25 -53 -29 -75 -29
-147 0 -72 4 -94 28 -146 36 -77 104 -145 182 -181 l60 -28 283 -3 c320 -4
357 2 449 65 64 43 126 131 143 204 16 67 8 171 -19 232 -30 70 -110 149 -184
183 l-62 29 -285 2 c-157 1 -302 -2 -323 -8z"/>
<path d="M16609 15085 c-103 -33 -189 -116 -229 -222 -28 -74 -25 -193 8 -266
31 -70 111 -149 185 -183 l62 -29 300 0 c294 0 301 0 360 24 82 33 164 115
195 196 34 88 34 200 -2 277 -35 76 -104 148 -175 184 l-58 29 -300 2 c-240 2
-309 -1 -346 -12z"/>
<path d="M15317 13879 c-60 -14 -116 -47 -166 -97 -175 -175 -126 -465 97
-574 l67 -33 310 0 310 0 57 27 c191 89 265 314 166 501 -37 69 -91 119 -168
156 l-55 26 -290 2 c-159 1 -307 -2 -328 -8z"/>
<path d="M16459 12724 c-63 -22 -137 -80 -177 -138 -122 -183 -55 -428 146
-528 46 -23 51 -23 372 -23 l325 0 63 34 c74 40 124 93 161 171 22 47 26 69
26 145 0 76 -4 98 -26 145 -37 78 -87 131 -161 171 l-63 34 -310 2 c-259 2
-318 0 -356 -13z"/>
<path d="M17777 11589 c-95 -23 -179 -90 -227 -181 -28 -53 -35 -76 -38 -143
-5 -95 6 -141 50 -215 42 -70 115 -125 200 -151 61 -19 87 -20 350 -17 l283 3
57 27 c278 130 284 515 10 650 l-67 33 -290 2 c-159 1 -307 -2 -328 -8z"/>
<path d="M19000 10444 c-99 -36 -185 -119 -221 -213 -29 -79 -24 -204 12 -281
49 -103 147 -177 264 -199 78 -15 499 -14 567 0 234 50 355 287 259 504 -28
63 -104 140 -170 172 l-56 28 -305 2 c-258 2 -312 0 -350 -13z"/>
<path d="M20283 9302 c-99 -35 -170 -101 -216 -199 -18 -39 -22 -66 -22 -143
0 -83 3 -102 28 -151 30 -62 103 -136 163 -167 72 -37 144 -44 419 -40 242 3
264 5 317 26 80 32 150 99 190 180 30 60 33 75 33 152 -1 111 -33 186 -111
260 -99 94 -104 95 -449 97 -269 3 -305 1 -352 -15z"/>
<path d="M21551 8154 c-94 -34 -176 -107 -214 -193 -32 -72 -35 -199 -6 -276
31 -82 121 -173 204 -205 56 -22 76 -24 308 -28 273 -4 349 4 429 44 171 87
243 307 156 478 -31 60 -105 133 -167 163 l-56 28 -305 2 c-256 2 -312 0 -349
-13z"/>
<path d="M22897 7029 c-74 -11 -168 -61 -214 -113 -167 -192 -93 -487 145
-576 53 -20 72 -21 361 -18 298 3 307 4 353 26 75 38 134 96 170 170 30 60 33
75 33 157 0 82 -3 97 -33 157 -55 113 -148 179 -277 197 -83 12 -455 12 -538
0z"/>
<path d="M24087 5879 c-104 -25 -201 -102 -246 -198 -23 -49 -26 -68 -26 -156
0 -84 4 -107 24 -147 37 -75 95 -134 169 -170 l67 -33 310 0 310 0 67 33 c248
122 274 466 45 617 -87 58 -137 65 -427 64 -140 -1 -272 -5 -293 -10z"/>
<path d="M25359 4737 c-103 -29 -190 -104 -237 -206 -22 -47 -27 -70 -26 -141
0 -72 4 -95 28 -146 34 -77 103 -144 181 -181 l60 -28 285 -3 c260 -3 291 -1
348 17 111 34 207 130 238 239 21 71 14 179 -15 245 -30 70 -110 149 -184 183
l-62 29 -285 2 c-205 2 -298 -1 -331 -10z"/>
<path d="M26687 3591 c-105 -34 -190 -119 -228 -228 -26 -73 -22 -184 10 -256
30 -70 110 -149 184 -183 l62 -29 305 0 305 0 61 28 c77 36 145 104 181 182
24 51 28 73 28 145 0 72 -4 94 -28 145 -36 78 -104 146 -181 182 l-61 28 -290
2 c-260 2 -296 1 -348 -16z"/>
</g>
</svg>
